<?xml version="1.0" standalone="no"?>
<!DOCTYPE svg PUBLIC "-//W3C//DTD SVG 20010904//EN"
 "http://www.w3.org/TR/2001/REC-SVG-20010904/DTD/svg10.dtd">
<svg version="1.0" xmlns="http://www.w3.org/2000/svg"
 width="1965.000000pt" height="1965.000000pt" viewBox="0 0 1965.000000 1965.000000"
 preserveAspectRatio="xMidYMid meet">
<metadata>
Created by potrace 1.14, written by Peter Selinger 2001-2017
</metadata>
<g transform="translate(0.000000,1965.000000) scale(0.100000,-0.100000)"
fill="#000000" stroke="none">
<path d="M8658 19645 c-2 -1 -55 -6 -118 -9 -63 -4 -131 -8 -150 -11 -19 -2
-66 -7 -105 -10 -38 -3 -99 -10 -135 -15 -36 -5 -87 -12 -115 -15 -27 -3 -84
-13 -126 -20 -42 -8 -98 -17 -125 -21 -27 -3 -52 -8 -55 -10 -4 -2 -24 -6 -45
-9 -22 -4 -47 -8 -56 -11 -10 -3 -30 -7 -45 -10 -16 -3 -84 -18 -153 -35 -69
-17 -132 -32 -140 -34 -104 -22 -441 -130 -665 -213 -289 -106 -612 -259 -947
-446 -245 -137 -590 -372 -853 -580 -82 -65 -154 -124 -160 -130 -5 -6 -35
-31 -65 -56 -30 -25 -66 -56 -80 -70 -15 -14 -49 -45 -76 -69 -210 -186 -558
-556 -759 -806 -22 -28 -42 -52 -45 -55 -3 -3 -35 -43 -71 -90 -528 -685 -937
-1429 -1276 -2320 -30 -80 -56 -149 -58 -155 -1 -5 -5 -17 -8 -25 -49 -124
-226 -713 -251 -833 -3 -12 -15 -60 -26 -107 -48 -192 -120 -535 -145 -690 -3
-19 -10 -57 -15 -85 -5 -27 -14 -86 -21 -130 -6 -44 -13 -87 -14 -96 -2 -9 -6
-40 -10 -69 -4 -29 -8 -60 -10 -69 -2 -9 -6 -47 -9 -83 -4 -37 -8 -75 -10 -85
-4 -17 -10 -79 -22 -193 -3 -30 -7 -71 -9 -90 -2 -19 -7 -80 -11 -135 -3 -55
-8 -118 -10 -140 -26 -309 -25 -1187 1 -1500 1 -22 6 -83 10 -135 3 -52 8
-117 11 -145 11 -118 15 -162 19 -200 3 -22 7 -62 10 -90 3 -27 8 -63 10 -80
3 -16 7 -50 10 -75 6 -62 24 -191 29 -215 2 -11 7 -42 10 -70 5 -41 18 -120
41 -260 8 -52 19 -109 41 -220 13 -66 25 -131 28 -145 2 -14 11 -57 20 -95 8
-39 17 -82 19 -95 6 -28 59 -252 83 -345 8 -33 17 -68 19 -77 32 -143 162
-580 257 -863 146 -435 294 -811 486 -1230 67 -146 317 -638 397 -780 601
-1075 1352 -2028 2189 -2780 49 -44 97 -87 106 -95 8 -8 45 -40 80 -70 36 -30
67 -58 70 -61 11 -14 323 -261 415 -329 55 -41 102 -77 105 -80 3 -3 18 -14
35 -24 16 -11 34 -24 40 -29 17 -15 348 -239 416 -282 322 -200 568 -336 857
-477 122 -59 224 -108 227 -108 2 0 33 -13 67 -29 214 -98 494 -201 853 -316
218 -70 663 -177 875 -210 19 -3 42 -8 50 -10 8 -2 38 -6 65 -10 28 -3 73 -10
100 -15 28 -5 78 -12 113 -15 35 -2 66 -6 70 -9 4 -2 45 -7 92 -11 47 -3 101
-8 120 -10 260 -26 1048 -26 1150 0 8 2 51 7 95 10 117 10 187 18 325 41 52 9
106 17 120 19 136 18 500 101 716 164 281 82 584 190 752 267 29 13 55 24 57
24 7 0 125 55 255 118 634 307 1241 735 1763 1242 122 118 241 238 297 300 17
19 49 54 70 77 80 86 270 314 378 453 131 170 174 229 318 445 150 224 164
245 164 251 0 3 15 29 34 57 84 130 212 359 348 627 77 152 183 379 233 502
15 35 32 77 40 93 14 32 80 199 138 350 113 294 311 956 362 1205 2 9 15 69
30 135 15 66 29 131 31 145 2 14 7 36 10 50 3 14 8 36 10 50 59 323 53 286 89
525 13 88 27 192 30 230 4 39 8 77 10 85 2 8 7 47 10 85 4 39 8 81 10 95 2 14
7 61 10 105 8 111 15 192 20 245 19 207 27 1072 12 1325 -4 66 -10 154 -12
195 -3 41 -7 104 -10 140 -3 36 -7 88 -9 115 -8 91 -17 190 -21 215 -2 14 -7
52 -10 85 -9 91 -21 187 -36 295 -11 78 -11 82 -28 190 -6 36 -13 83 -16 105
-3 22 -8 51 -11 65 -3 13 -7 40 -10 60 -2 19 -16 94 -30 165 -14 72 -28 141
-30 155 -20 111 -81 382 -130 575 -20 77 -37 147 -39 156 -2 9 -8 34 -15 55
-6 22 -20 73 -31 114 -11 41 -28 102 -38 135 -11 33 -31 101 -46 150 -133 443
-357 1042 -533 1425 -16 36 -53 117 -82 180 -56 123 -246 503 -306 610 -212
383 -368 640 -570 942 -84 125 -170 251 -192 280 -173 236 -232 314 -348 458
-113 142 -195 240 -312 375 -274 317 -689 729 -1018 1011 -187 161 -543 442
-658 519 -16 11 -48 34 -71 50 -38 27 -315 213 -361 242 -84 54 -356 215 -477
282 -126 71 -587 301 -601 301 -2 0 -33 13 -68 29 -35 16 -103 45 -153 65 -49
20 -99 41 -110 46 -259 115 -1012 338 -1305 386 -14 2 -45 9 -70 14 -25 5 -58
11 -75 14 -16 2 -61 9 -100 16 -109 17 -117 18 -165 25 -25 3 -56 8 -70 10
-14 2 -54 7 -90 10 -36 4 -72 8 -80 10 -8 2 -60 7 -115 11 -55 3 -118 8 -140
11 -47 5 -742 13 -747 8z m357 -689 c61 -4 124 -8 140 -11 17 -2 54 -7 83 -10
28 -3 69 -8 90 -10 20 -3 53 -8 72 -11 19 -3 51 -7 70 -10 19 -2 44 -7 56 -9
12 -3 39 -7 60 -11 247 -38 780 -179 1089 -289 72 -25 141 -50 155 -54 55 -18
369 -145 493 -200 317 -140 774 -375 937 -481 8 -6 22 -13 30 -17 46 -20 517
-322 596 -382 12 -9 31 -23 43 -31 288 -198 674 -508 951 -765 290 -269 535
-522 770 -795 69 -80 127 -147 130 -150 3 -3 43 -52 89 -110 46 -58 91 -114
100 -125 13 -17 85 -113 220 -295 132 -178 448 -668 543 -840 12 -24 28 -50
33 -59 37 -59 179 -328 263 -496 235 -469 428 -939 597 -1450 66 -200 156
-497 181 -595 2 -8 24 -94 49 -190 47 -179 127 -519 141 -600 4 -25 8 -47 9
-50 4 -15 25 -119 30 -145 12 -62 36 -201 41 -230 2 -16 6 -41 9 -55 3 -14 7
-41 10 -60 3 -19 10 -60 15 -90 10 -64 15 -94 30 -210 12 -93 17 -136 25 -190
2 -19 7 -62 10 -95 3 -33 7 -78 10 -100 3 -22 7 -67 10 -100 3 -33 7 -78 10
-100 2 -22 7 -87 10 -145 4 -58 9 -139 11 -180 9 -153 13 -321 13 -555 1 -359
-8 -585 -35 -885 -3 -36 -7 -87 -9 -115 -5 -53 -11 -109 -25 -225 -6 -41 -12
-97 -15 -125 -3 -27 -10 -75 -15 -105 -5 -30 -12 -75 -15 -100 -5 -42 -19
-126 -29 -176 -2 -12 -7 -39 -10 -60 -5 -32 -24 -129 -51 -264 -3 -14 -8 -41
-11 -60 -3 -19 -8 -38 -11 -43 -2 -4 -7 -20 -9 -35 -40 -220 -224 -846 -348
-1187 -318 -868 -803 -1730 -1356 -2410 -35 -44 -67 -82 -70 -85 -3 -3 -32
-36 -65 -75 -218 -255 -510 -532 -714 -675 -192 -136 -289 -171 -486 -176
-412 -11 -841 234 -1188 678 -199 255 -361 561 -481 908 -40 113 -194 673
-307 1110 -16 63 -39 148 -50 188 -11 40 -22 81 -24 90 -2 9 -20 76 -39 147
-66 247 -96 361 -137 515 -44 168 -54 205 -94 353 -14 54 -28 106 -30 115 -2
9 -29 112 -60 227 -77 288 -186 697 -190 715 -2 8 -11 42 -20 75 -9 33 -18 67
-20 75 -2 8 -11 42 -20 75 -9 33 -18 68 -20 77 -2 10 -18 71 -36 135 -30 114
-46 172 -53 203 -2 8 -36 134 -74 280 -39 146 -92 344 -117 440 -26 96 -53
200 -62 230 -8 30 -16 64 -19 75 -2 11 -42 164 -90 340 -47 176 -87 327 -89
335 -2 8 -20 78 -40 155 -62 232 -105 394 -131 500 -25 99 -35 116 -90 153
-10 7 -197 137 -414 289 -217 152 -409 285 -427 295 -34 20 -45 48 -92 223
-11 44 -55 208 -97 365 -41 157 -87 326 -100 375 -14 50 -27 98 -29 108 -4 20
-69 261 -85 317 -20 71 -82 304 -85 320 -2 10 -12 48 -23 86 -22 80 -45 165
-96 354 -20 74 -53 200 -74 280 l-39 144 86 22 c47 12 138 37 201 54 63 17
124 33 134 35 10 3 33 9 50 14 17 6 76 22 131 36 166 43 320 84 635 170 69 19
179 48 245 66 66 17 170 45 230 61 61 16 175 47 255 68 80 21 187 50 239 64
52 14 96 25 96 23 2 -2 452 -1685 535 -2002 21 -77 61 -229 90 -337 l52 -196
-72 -139 c-40 -76 -90 -169 -110 -208 -21 -38 -62 -117 -93 -175 -30 -58 -105
-199 -167 -315 -61 -115 -112 -217 -113 -225 0 -8 11 -60 26 -115 48 -177 198
-736 227 -850 50 -190 208 -783 251 -940 22 -82 42 -158 44 -168 3 -10 7 -27
10 -37 3 -10 8 -27 10 -37 2 -10 38 -146 80 -303 43 -157 79 -292 80 -300 2
-8 15 -58 30 -110 14 -52 28 -102 30 -110 3 -14 25 -97 81 -307 22 -83 74
-276 89 -335 3 -10 7 -26 9 -35 2 -10 25 -94 50 -188 84 -313 146 -543 162
-605 8 -32 34 -131 74 -280 23 -85 44 -162 46 -170 2 -8 10 -40 18 -70 8 -30
22 -82 31 -115 122 -455 252 -945 286 -1075 61 -233 144 -492 195 -607 8 -18
21 -50 30 -70 9 -21 43 -92 76 -158 147 -294 310 -485 473 -555 61 -27 164
-33 219 -14 145 51 470 392 772 809 130 179 414 619 414 641 0 3 8 18 18 32
11 15 36 59 57 97 21 39 63 115 93 170 30 55 88 169 129 255 41 85 78 163 84
173 42 76 211 482 289 692 151 408 315 969 384 1315 8 38 46 232 51 260 6 29
41 235 50 295 16 103 53 389 60 470 4 39 8 79 10 90 2 12 6 70 10 130 4 61 9
126 10 145 8 79 18 418 19 605 0 279 -18 705 -39 885 -2 19 -7 64 -10 100 -3
36 -8 81 -10 100 -18 148 -27 223 -30 240 -1 8 -6 40 -10 70 -14 116 -82 511
-109 635 -3 11 -12 53 -20 94 -81 377 -212 844 -334 1196 -57 165 -175 474
-214 565 -11 25 -24 54 -29 65 -4 11 -25 56 -44 100 -20 44 -48 106 -61 137
-75 178 -376 747 -487 920 -21 31 -37 62 -37 68 0 5 -4 10 -8 10 -5 0 -14 12
-21 26 -22 49 -282 433 -403 595 -221 299 -406 523 -633 768 -99 107 -406 415
-495 497 -42 38 -103 94 -135 123 -130 119 -390 331 -590 481 -348 260 -631
445 -1015 663 -269 152 -703 359 -975 463 -49 19 -101 40 -115 46 -58 25 -376
132 -515 173 -259 76 -563 146 -780 180 -59 9 -281 35 -355 42 -113 10 -514
10 -615 0 -138 -14 -264 -37 -395 -73 -155 -43 -266 -37 -385 21 -150 73 -230
203 -220 363 10 167 154 324 345 376 30 9 125 36 210 61 178 53 254 71 325 80
61 8 88 12 140 20 54 8 102 13 210 21 50 4 91 7 92 9 5 3 248 -3 358 -9z
m-3147 -1170 c13 -3 31 -7 40 -10 9 -3 31 -8 49 -11 136 -23 392 -156 563
-294 292 -234 570 -625 740 -1041 12 -30 29 -69 36 -87 29 -64 104 -302 148
-468 25 -93 55 -204 67 -245 12 -41 22 -82 24 -90 2 -8 19 -76 39 -150 20 -74
39 -144 41 -154 2 -10 29 -112 60 -225 52 -192 261 -975 271 -1013 2 -10 6
-26 8 -35 2 -10 19 -72 36 -138 18 -66 41 -154 52 -195 11 -41 21 -82 23 -90
2 -8 12 -49 24 -90 22 -77 120 -443 126 -470 5 -22 151 -576 224 -848 16 -59
70 -262 120 -452 50 -190 125 -473 167 -630 41 -157 89 -337 105 -400 17 -63
54 -205 83 -315 79 -297 137 -517 142 -535 2 -8 12 -46 22 -85 l18 -70 207
-145 c113 -80 325 -228 470 -329 l265 -185 62 -235 c62 -233 73 -273 123 -461
14 -52 75 -279 136 -505 60 -225 133 -495 161 -600 28 -104 53 -197 55 -205 9
-39 116 -439 125 -466 11 -33 13 -74 5 -74 -5 0 -386 -101 -620 -165 -27 -7
-169 -45 -315 -84 -146 -39 -314 -84 -375 -101 -60 -17 -121 -33 -135 -36 -14
-3 -49 -12 -79 -21 -29 -8 -59 -16 -65 -17 -6 -2 -36 -10 -66 -19 -170 -49
-632 -169 -635 -165 -2 3 -112 411 -166 618 -15 58 -41 159 -59 225 -18 66
-47 176 -66 245 -18 69 -74 278 -124 465 -50 187 -93 347 -95 356 -4 20 -103
388 -141 530 l-26 96 68 129 c37 71 91 172 118 224 28 52 65 122 81 155 17 33
32 62 35 65 3 3 23 39 44 80 21 41 55 107 76 145 21 39 60 113 88 166 l50 95
-105 400 c-58 219 -108 406 -111 414 -3 8 -6 20 -7 25 -2 6 -23 87 -48 180
-25 94 -58 215 -72 270 -15 55 -40 150 -56 210 -17 61 -32 118 -34 128 -2 10
-7 27 -10 37 -3 10 -8 27 -10 37 -2 10 -20 77 -39 148 -62 233 -93 347 -135
505 -22 85 -62 232 -87 325 -25 94 -56 211 -69 260 -13 50 -39 149 -59 220
-19 72 -47 175 -61 230 -14 55 -35 134 -46 175 -34 127 -80 299 -115 430 -34
132 -59 224 -94 355 -41 151 -62 230 -65 245 -2 8 -47 177 -100 375 -53 198
-105 394 -116 435 -11 41 -27 100 -35 130 -9 30 -18 62 -19 71 -2 10 -17 66
-33 125 -28 105 -43 158 -47 179 -2 6 -19 71 -39 145 -20 74 -39 143 -41 153
-25 111 -121 410 -171 532 -228 553 -489 846 -741 829 -53 -3 -128 -35 -173
-73 -91 -77 -121 -105 -205 -190 -116 -120 -164 -175 -285 -326 -142 -179
-353 -478 -456 -648 -16 -27 -41 -67 -56 -90 -15 -23 -33 -53 -41 -67 -7 -14
-43 -77 -79 -140 -36 -63 -76 -133 -88 -155 -49 -86 -242 -478 -305 -620 -36
-82 -72 -163 -80 -180 -23 -52 -95 -234 -155 -396 -197 -527 -350 -1093 -454
-1684 -14 -77 -28 -160 -31 -185 -6 -47 -9 -65 -20 -140 -12 -80 -14 -94 -20
-160 -4 -36 -9 -73 -11 -83 -1 -10 -6 -50 -9 -90 -3 -39 -8 -83 -10 -97 -2
-14 -7 -70 -10 -125 -4 -55 -8 -116 -10 -135 -22 -221 -22 -914 -1 -1220 14
-189 18 -238 21 -260 2 -14 7 -56 10 -95 3 -38 8 -87 11 -108 2 -21 6 -59 9
-85 3 -26 10 -83 16 -127 6 -44 12 -91 14 -105 5 -45 16 -114 25 -165 6 -27
12 -63 14 -80 7 -55 48 -279 61 -340 8 -33 17 -75 20 -94 3 -19 8 -37 10 -40
2 -4 6 -26 10 -50 12 -85 135 -560 199 -771 84 -278 150 -470 266 -770 128
-335 445 -996 566 -1182 13 -21 24 -40 24 -43 0 -22 313 -515 458 -721 208
-297 516 -677 746 -924 183 -195 542 -545 691 -672 17 -15 68 -59 115 -99 854
-733 1934 -1336 2960 -1653 211 -65 482 -134 625 -160 17 -3 41 -8 55 -11 21
-4 122 -22 226 -40 11 -1 52 -6 90 -10 38 -4 78 -9 89 -11 68 -13 212 -19 430
-19 248 0 344 5 460 26 33 5 74 13 90 15 17 3 89 21 160 39 98 25 145 32 190
29 176 -12 319 -103 383 -242 20 -46 25 -73 26 -142 1 -75 -3 -93 -30 -150
-40 -85 -111 -162 -187 -204 -53 -29 -493 -167 -578 -181 -13 -2 -58 -8 -99
-14 -41 -6 -95 -13 -120 -17 -83 -11 -94 -13 -185 -20 -109 -10 -399 -10 -510
0 -191 17 -255 24 -395 47 -69 11 -141 22 -160 25 -19 3 -37 7 -40 9 -3 2 -26
6 -50 10 -25 3 -61 10 -80 15 -19 5 -49 12 -66 14 -46 8 -366 90 -469 121
-327 96 -672 222 -1005 367 -141 62 -586 280 -695 341 -44 24 -98 54 -120 67
-44 24 -199 114 -229 133 -366 225 -661 427 -926 634 -36 27 -358 291 -390
318 -202 174 -648 606 -750 725 -12 14 -43 48 -69 75 -299 315 -771 937 -1048
1381 -319 509 -613 1087 -840 1649 -117 290 -282 763 -350 1000 -1 6 -12 42
-23 80 -73 247 -187 694 -216 845 -3 14 -11 53 -19 88 -8 34 -17 77 -20 95 -5
31 -10 56 -21 107 -4 23 -15 79 -29 155 -13 71 -34 193 -40 230 -3 22 -10 67
-15 100 -24 159 -25 166 -34 245 -4 30 -9 71 -12 90 -8 57 -12 98 -28 250 -19
187 -22 222 -42 535 -18 285 -18 888 0 1140 3 39 8 111 11 160 3 50 7 106 10
125 3 19 7 69 10 110 4 41 8 86 10 100 2 14 6 54 10 90 6 65 12 118 21 175 3
17 7 46 9 65 2 19 9 67 15 105 7 39 13 79 14 90 12 84 87 477 111 575 2 8 8
38 15 65 19 85 90 367 106 420 8 28 18 64 23 80 86 294 251 771 316 910 7 17
23 53 34 81 20 51 29 72 93 214 19 41 45 100 59 130 94 214 340 667 497 915
119 189 306 464 379 555 6 8 57 74 114 145 180 228 334 400 524 585 126 122
160 154 209 194 21 17 43 36 50 42 43 40 221 163 289 199 84 44 132 61 209 71
24 4 45 8 47 9 5 5 243 -3 269 -9z"/>
</g>
</svg>
