<?xml version="1.0" encoding="UTF-8"?>
<svg id="Layer_1" data-name="Layer 1" xmlns="http://www.w3.org/2000/svg" viewBox="0 0 1334.81 193.61">
  <defs>
    <style>
      .cls-1 {
        fill: #fff;
        stroke-width: 0px;
      }
    </style>
  </defs>
  <path class="cls-1" d="M474.88,193.55c-20.59,0-36.24-6-46.95-18s-16.07-29.21-16.06-51.64c0-22.85,5.6-40.42,16.8-52.7,11.2-12.28,27.38-18.41,48.53-18.4,13.42.03,26.66,3.01,38.79,8.74l-16.39,19.4c-11.71-3.6-14.67-4-22.62-4-23.55,0-35.32,15.6-35.33,46.8,0,15.22,2.94,26.66,8.81,34.33,5.87,7.67,14.45,11.47,25.74,11.41,12.81.02,25.4-3.28,36.55-9.58v25.18c-5.14,3.02-10.73,5.22-16.55,6.51-7.03,1.43-14.19,2.1-21.36,2"/>
  <path class="cls-1" d="M556.09,44.72c1.11-1.17,2.07-2,3.12-3.07V0l-28.67,13.34v61.69c.9-1.14,1.86-2.34,2.73-3.41,10.07-12.47,17.68-21.43,22.82-26.9Z"/>
  <polygon class="cls-1" points="594.52 113.61 649.29 55.27 615.95 55.27 574.84 98.99 558.47 119.38 557.73 119.38 559.21 93.22 559.21 85.91 530.54 118.96 530.54 191.11 559.21 191.11 559.21 144.56 575.08 131.54 618.77 191.11 652.74 191.11 594.52 113.61"/>
  <path class="cls-1" d="M85.42,34.14c-16.91,0-30.2,5.98-39.88,17.94-9.68,11.96-14.52,28.45-14.52,49.47,0,22,4.67,38.67,14,50s22.8,17,40.4,17c7.44.02,14.87-.74,22.15-2.27,7.13-1.52,14.55-3.47,22.27-5.84v25.11c-14.11,5.33-30.11,8-48,8-26.34,0-46.57-7.96-60.68-23.88S0,130.97,0,101.32C0,82.65,3.43,66.32,10.28,52.32c6.39-13.51,16.76-24.74,29.72-32.18,12.96-7.45,28.18-11.18,45.65-11.17,17.67-.17,35.13,3.78,51,11.54l-10.62,24.44c-6.25-2.94-12.68-5.46-19.26-7.55-6.9-2.19-14.11-3.29-21.35-3.26"/>
  <path class="cls-1" d="M266.48,191.11h-29v-83.56c0-10.48-2.11-18.3-6.34-23.46-4.23-5.16-10.93-7.74-20.11-7.73-12.15,0-21.07,3.62-26.77,10.86-5.7,7.24-8.55,19.38-8.56,36.42v67.43h-28.97V13.34L175.65,0v48.55c-.02,8.32-.51,16.63-1.45,24.9h1.85c3.92-6.54,9.62-11.82,16.43-15.24,7.01-3.59,15.19-5.39,24.55-5.4,32.98,0,49.47,16.58,49.48,49.75l-.03,88.55Z"/>
  <path class="cls-1" d="M341.04,74.67c-9.19,0-16.55,2.91-22.08,8.72-5.53,5.81-8.83,14.29-9.91,25.43h61.78c-.17-11.22-2.87-19.72-8.12-25.49-5.25-5.77-12.47-8.66-21.67-8.66M346.34,193.55c-21.17,0-37.72-6.16-49.66-18.48s-17.91-29.29-17.91-50.91c0-22.19,5.54-39.63,16.61-52.32,11.07-12.69,26.29-19.03,45.66-19,18,0,32.2,5.45,42.59,16.34,10.39,10.89,15.6,25.89,15.63,45v15.6h-90.71c.42,13.18,3.99,23.31,10.72,30.4s16.2,10.63,28.42,10.62c7.57.03,15.11-.76,22.51-2.35,7.68-1.77,15.16-4.29,22.34-7.55v23.45c-6.8,3.27-14,5.67-21.41,7.12-8.18,1.47-16.48,2.17-24.79,2.08"/>
  <path class="cls-1" d="M701.64,170.46c10.49,0,18.91-2.93,25.28-8.78,6.37-5.85,9.55-14.06,9.54-24.63v-11.78l-17.47.73c-13.63.49-23.53,2.76-29.72,6.81s-9.29,10.25-9.3,18.62c0,6.05,1.8,10.74,5.41,14.06s9.03,4.99,16.26,5M744.71,190.14l-5.78-18.91h-1c-6.56,8.27-13.16,13.9-19.81,16.88-6.65,2.98-15.18,4.46-25.59,4.44-13.38,0-23.82-3.6-31.32-10.81-7.5-7.21-11.26-17.4-11.27-30.58,0-14,5.21-24.56,15.63-31.69,10.42-7.13,26.3-11.01,47.63-11.65l23.5-.74v-7.24c0-8.67-2.03-15.16-6.08-19.47-4.05-4.31-10.35-6.46-18.89-6.45-6.81-.03-13.57,1.01-20.06,3.08-6.31,2.01-12.48,4.43-18.47,7.24l-9.35-20.63c7.67-3.95,15.82-6.91,24.24-8.79,8.15-1.92,16.49-2.93,24.86-3,17.33,0,30.4,3.77,39.21,11.3,8.81,7.53,13.21,19.37,13.22,35.5v91.5l-20.67.02Z"/>
  <path class="cls-1" d="M840.33,170.23c7.18-.02,14.32-1.14,21.17-3.31v21.73c-3.98,1.62-8.12,2.79-12.36,3.5-5.18.96-10.43,1.43-15.7,1.42-27.4,0-41.1-14.41-41.11-43.24v-73.2h-18.57v-12.78l19.92-10.56,9.86-28.73h17.84v30.21h38.76v21.86h-38.76v72.71c0,6.96,1.74,12.1,5.23,15.42,3.49,3.32,8.06,4.99,13.72,5"/>
  <path class="cls-1" d="M940.6,52.81c4.83-.09,9.66.32,14.4,1.24l-2.8,26.89c-4.19-.99-8.49-1.48-12.8-1.47-11.56,0-20.93,3.77-28.12,11.3-7.19,7.53-10.78,17.32-10.77,29.35v71h-28.92V55.27h22.61l3.82,23.95h1.48c4.22-7.79,10.3-14.41,17.7-19.29,6.94-4.64,15.1-7.12,23.45-7.12"/>
  <path class="cls-1" d="M1001.9,171.46c10.5,0,18.93-2.93,25.29-8.78,6.36-5.85,9.54-14.06,9.54-24.63v-11.79l-17.48.73c-13.62.5-23.53,2.77-29.72,6.82s-9.29,10.25-9.3,18.61c0,6.06,1.81,10.75,5.42,14.07,3.61,3.32,9.03,4.99,16.25,5M1044.97,191.14l-5.77-18.94h-1c-6.56,8.27-13.16,13.9-19.81,16.88-6.65,2.98-15.18,4.47-25.6,4.48-13.38,0-23.82-3.6-31.32-10.8-7.5-7.2-11.26-17.39-11.27-30.58,0-14,5.21-24.56,15.63-31.69,10.42-7.13,26.29-11.02,47.62-11.67l23.51-.74v-7.25c0-8.67-2.03-15.15-6.09-19.46-4.06-4.31-10.36-6.46-18.89-6.45-6.81-.03-13.58,1.01-20.06,3.08-6.31,2-12.47,4.42-18.46,7.23l-9.35-20.63c7.68-3.95,15.83-6.9,24.25-8.78,8.15-1.93,16.49-2.93,24.86-3,17.33,0,30.4,3.77,39.19,11.3,8.79,7.53,13.2,19.37,13.23,35.5v91.5l-20.67.02Z"/>
  <path class="cls-1" d="M1139.88,170.22c11.9,0,20.57-3.33,26-10,5.43-6.67,8.22-17.5,8.37-32.49v-4.05c0-17.12-2.79-29.28-8.37-36.47-5.58-7.19-14.32-10.8-26.21-10.82-10.18,0-18.02,4.11-23.51,12.34-5.49,8.23-8.24,19.96-8.25,35.2,0,15.07,2.67,26.55,8,34.44,5.33,7.89,13.33,11.84,24,11.85M1132.13,193.55c-16.99,0-30.24-6.14-39.75-18.42-9.51-12.28-14.27-29.52-14.28-51.71,0-22.27,4.82-39.6,14.46-52,9.64-12.4,22.99-18.6,40.06-18.61,17.88,0,31.5,6.59,40.86,19.77h1.48c-1.22-7.64-1.92-15.35-2.1-23.08V13.34l29-13.34v191.11h-22.64l-5-17.81h-1.36c-9.26,13.5-22.84,20.25-40.73,20.25"/>
  <path class="cls-1" d="M1276.6,74.67c-9.19,0-16.56,2.91-22.09,8.72-5.53,5.81-8.84,14.29-9.91,25.43h61.79c-.17-11.22-2.88-19.72-8.13-25.49-5.25-5.77-12.47-8.66-21.66-8.66M1281.89,193.55c-21.16,0-37.71-6.16-49.66-18.48-11.95-12.32-17.91-29.29-17.9-50.91,0-22.19,5.54-39.63,16.62-52.32,11.08-12.69,26.3-19.03,45.65-19,18,0,32.19,5.45,42.58,16.34,10.39,10.89,15.6,25.89,15.63,45v15.6h-90.7c.41,13.18,3.98,23.31,10.71,30.4s16.21,10.63,28.43,10.62c7.54.05,15.07-.71,22.45-2.27,7.68-1.77,15.16-4.29,22.34-7.55v23.37c-6.8,3.28-14,5.67-21.41,7.12-8.16,1.47-16.45,2.17-24.74,2.09"/>
  <path class="cls-1" d="M475.88,96.11c-1.52-.65-3.22-.73-4.8-.24-10.88,3.68-14.67,10.47-13.66,20.18,1.73,16.62,4.44,23.38,5.59,27.05,1.41,4.46,7,9.8,12.83,9.8,4.46,0,10.93-.58,21.72-12.28l109.41-123.89c-.51.43.08.09-.07.09l.07-.09c-7.4-.28-14.8.15-22.12,1.28-4.19.86-8.2,2.44-11.85,4.66-9.56,5.48-85.83,95.62-87.87,95.62-3.53,0-4.42-9-5.26-15-.15-1.99-.84-3.91-2-5.54-.55-.67-1.23-1.22-1.99-1.64Z"/>
</svg>