<?xml version="1.0" encoding="UTF-8"?>
<svg id="Layer_1" data-name="Layer 1" xmlns="http://www.w3.org/2000/svg" viewBox="0 0 741.86 455.76">
  <defs>
    <style>
      .cls-1 {
        fill: none;
        stroke: #fff;
        stroke-linecap: round;
        stroke-linejoin: round;
        stroke-width: 2px;
      }

      .cls-2 {
        opacity: .89;
      }

      .cls-3 {
        fill: #fff;
        stroke-width: 0px;
      }
    </style>
  </defs>
  <g class="cls-2">
    <path class="cls-3" d="m1.09,455.76v-106.42h739.61v106.42H1.09Zm520.22-57.37c1.48-1.13,2.54-1.8,3.42-2.64,5.57-5.35,3.92-15.68-3.1-18.29-7.13-2.66-14.52-1.28-21.82-1.18v47.39c6.62,0,12.96.57,19.16-.14,8.56-.97,12-5.96,11.36-14.57-.41-5.49-3.4-8.78-9.02-10.57Zm133.11,25.69v-47.81h-7.76v17.03c-7.36-4.96-13.74-4.15-16.71,2.05-3.75,7.81-3.81,15.99-.25,23.9,2.61,5.79,8.97,7.26,14.2,3.72.77-.52,1.49-1.13,2.33-1.78,1.38,4.91,5.08,2.13,8.2,2.9Zm-325.71-.05v-47.73h-7.61v17.13c-7.24-5.15-13.74-4.45-16.82,1.87-3.81,7.8-3.8,15.98-.29,23.89,2.59,5.83,8.89,7.32,14.16,3.84.78-.51,1.48-1.15,2.45-1.91,1.34,5.12,5.03,2.19,8.1,2.92Zm-42.04-.37h7.93c0-7.91.06-15.45-.03-22.99-.05-4.31-1.02-8.34-5.62-10.06-4.49-1.67-8.32-.36-11.49,3.14-.24.27-.68.36-1.04.54-.37-1.2-.7-2.31-.98-3.22h-7.32v32.62h7.9c0-4.56-.21-8.8.07-13.01.2-2.95.74-5.97,1.72-8.76.95-2.71,3.08-4.9,6.28-4.15,3.24.76,2.5,3.85,2.54,6.16.12,6.44.04,12.89.04,19.72Zm70.21-32.71c-.32,6.34-.43,12.24-.98,18.1-.3,3.2-1.7,6.13-4.9,7.63-2.6,1.22-4.4.37-4.65-2.49-.31-3.55-.22-7.14-.25-10.71-.03-4.08,0-8.17,0-12.43h-8.21c0,7.77-.05,15.3.04,22.82.02,1.62.34,3.29.83,4.84,1.49,4.76,6,7.3,10.71,5.67,2.46-.85,4.59-2.65,6.87-4.03.19.96.45,2.21.69,3.38h7.19v-32.79h-7.33Zm-180.37,32.85c0-5.04-.08-9.57.02-14.09.1-4.06.82-8.06,4.22-10.73,1.12-.89,3.16-1.39,4.47-1,.9.26,1.72,2.35,1.77,3.65.21,5.9.11,11.82.17,17.73.01,1.45.2,2.91.3,4.28h7.92c0-7.39.06-14.39-.04-21.38-.03-2.04-.27-4.13-.82-6.08-1.17-4.15-4.37-6.75-8.57-6.04-3.26.55-6.3,2.46-9.39,3.74-.05-.37-.22-1.62-.39-2.83h-7.31v32.76h7.64Zm290.16-32.8c-2.25,6.89-4.49,13.73-6.99,21.36-2.67-7.71-5.03-14.55-7.35-21.25h-8.2c.31,1.01.48,1.66.7,2.28,3.32,9.17,6.75,18.3,9.87,27.53.65,1.9.58,4.28.13,6.27-.83,3.68-2.18,7.25-3.32,10.9,6.08,1.31,7.05.99,8.32-2.68,4.69-13.63,9.37-27.27,14.02-40.92.37-1.08.49-2.24.79-3.7-1.93,0-3.43-.02-4.93,0-.95.02-1.89.12-3.05.2Zm98.39,16.33c-.28-2.06-.4-3.98-.81-5.84-1.73-7.81-6.41-11.59-14.15-11.53-7.38.06-12.27,3.98-13.54,11.67-.61,3.7-.58,7.65-.03,11.37,1.12,7.49,6.23,11.72,13.48,11.86,7.31.14,12.41-3.84,14.1-11.16.49-2.12.65-4.31.95-6.36Zm-421.32-.13c-.32-2.09-.48-4.28-.99-6.39-1.81-7.47-6.51-10.99-14.25-10.85-7.15.14-12.08,4.14-13.26,11.54-.59,3.71-.61,7.66-.05,11.37,1.15,7.63,6.06,11.75,13.38,11.98,7.4.24,12.59-3.85,14.32-11.44.45-1.99.57-4.05.85-6.21Zm452.45,16.78c0-7.95,0-15.35,0-22.75,0-1.1.03-2.21-.15-3.29-.58-3.55-2.4-6.57-6.01-7.01-4.1-.5-8.46-.56-12.45.34-4.33.98-5.89,4.39-5.56,9.39,1.03.08,2.1.23,3.16.24,1.21,0,2.42-.12,3.49-.18,2.11-4.39,4.21-5.7,7.16-4.67,2.56.9,3.21,3.44,2.05,8.47-1.25.1-2.63.05-3.93.36-2.78.65-5.68,1.15-8.24,2.33-4.26,1.96-6.15,6.22-5.24,10.59.84,4.04,4.31,7.03,9.05,6.91,2.88-.08,5.73-1.27,8.82-2.02,1.58,2.78,4.58.95,7.87,1.3Zm-496.34-47.74c-.18.79-.3,1.06-.3,1.33-.02,11.11,0,22.22-.06,33.34-.04,6.02-3.01,8.5-8.93,7.58-1.71-.27-3.4-.65-5.32-1.02v6.3c1.48.35,2.67.71,3.87.9,13.17,2.09,18.88-2.77,18.87-16,0-9.33,0-18.66-.02-27.99,0-1.45-.17-2.9-.27-4.44h-7.86Zm295.73,14.8c.1,2.03.17,3.6.25,5.25,2.27.27,4.11.49,6.28.75,0,6.54,0,12.83,0,19.12,0,3.4.94,6.38,4.41,7.63,3.94,1.41,7.97,1.64,11.92.04v-4.95c-1.6,0-3.01.39-4.01-.09-1.44-.69-3.62-1.95-3.69-3.06-.36-6.21-.17-12.46-.17-19.16h8.84v-5.82h-9.39v-11.75c-6.53,1.59-9.29,5.18-7.86,11.54-2.35.18-4.21.32-6.6.5Zm-171.83,27.88c-1.09,0-1.88,0-2.67,0-3.77-.05-5.52-1.29-5.69-4.94-.25-5.58-.07-11.18-.07-17.02,3.39-.24,6.43-.46,9.38-.67v-5.66h-9.72v-11.52c-6.67,1.42-8.67,5.65-7.85,11.42-2.37.23-4.22.41-5.89.57v5.25c2.03.22,3.77.4,5.87.62.07,1.57.18,3.05.19,4.53.04,5.08,0,10.16.07,15.24.04,2.89.84,5.57,3.75,6.79,4.15,1.74,8.41,1.97,12.63.25v-4.86Zm148.06,5.3c4.71,0,9.05.38,13.3-.11,3.92-.46,6.68-2.91,7.61-7.05.92-4.09-.55-7.34-3.56-9.88-2.08-1.76-4.53-3.07-6.73-4.7-1.47-1.09-2.79-2.4-4.38-3.78,4.1-4.83,8.34-2.2,12.53-1.31.1-1.14.26-2.07.25-3.01,0-1.06-.17-2.13-.32-3.8-4.07,0-8.11-.69-11.8.14-7.75,1.75-9.91,9.84-4.32,15.53,2.27,2.31,5.25,3.92,7.83,5.96,1.31,1.03,2.44,2.29,3.85,3.64-4.83,4.36-9.54,1.64-14.28,1.17v7.21Zm-121.27-47.95v47.52h7.84v-47.52h-7.84Zm181.34,14.74h-7.3v32.69h7.53c0-5.26-.07-10.18.02-15.09.12-6.76,2.54-9.37,9.18-10.22.38-.05.74-.25,1.28-.45v-7.69c-4.72-.92-7.4,2.2-10.36,5.13-.14-1.77-.24-2.98-.35-4.36Zm173.32.02v32.64h7.66c0-4.88-.06-9.41.01-13.93.15-8.86,3.37-11.09,9.76-11.51.21-.01.4-.33.58-.48v-7.57c-4.53-.53-7.25,1.9-9.97,5.19-.33-1.84-.56-3.09-.78-4.35h-7.26Zm-446.31,32.83v-32.7h-7.23v32.7h7.23Zm-7.35-47.58v7.6h7.33v-7.6h-7.33Z"/>
    <path class="cls-3" d="m313.36,302.91V0h115v302.91h-115Z"/>
    <path class="cls-3" d="m178.34.08h115.27c.1,1.52.29,3.09.29,4.66.01,75.79.01,151.58,0,227.37,3.65,33.95-25.61,64.5-60.38,69.62-17.91,2.64-35.93.93-53.89,1.27-.37,0-.75-.28-1.3-.5V.08Z"/>
    <path class="cls-3" d="m563.53.03v302.49c-.74.18-1.51.53-2.27.52-15.93-.15-31.98.83-47.76-.78-28.89-2.94-50.47-17.4-62.12-44.81-2.81-6.61-3.99-13.7-3.47-20.97.11-1.51.05-3.02.05-4.54,0-75.65,0-151.3,0-226.95V.03h115.57Z"/>
    <path class="cls-3" d="m662.23,305.03c-43.86-.08-79.1-35.62-79.05-79.71.05-43.28,35.6-78.35,78.64-78.94,42.62-.58,81.28,34.83,80,81.62-1.19,43.71-37.63,77.64-79.59,77.02Z"/>
    <path class="cls-3" d="m79.4,305.03C36.47,305.57-1.05,269.7.02,223.64c1.01-43.07,37.37-78.23,81.49-77.29,42.04.89,77.32,36.59,77.17,79.63-.15,43.75-35.66,79.15-79.29,79.05Z"/>
    <path class="cls-3" d="m508.09,417.71v-15.24c5.13-1.49,10.3-.48,12.36,2.66,1.86,2.83,2.08,6.08.24,8.91-2.96,4.54-7.69,3.73-12.6,3.67Z"/>
    <path class="cls-3" d="m508.1,395.5v-12.93c3.53-.6,7.08-.97,9.81,1.86,2.22,2.31,2.01,5.49.53,8.04-2.27,3.91-6.28,2.86-10.34,3.03Z"/>
    <path class="cls-3" d="m647.14,407.17c-.63,2.74-.86,5.57-2.01,7.97-.67,1.39-2.79,2.8-4.29,2.84-1.27.04-3.28-1.61-3.79-2.96-1.9-5.02-1.95-10.31-.07-15.32.54-1.45,2.63-3.02,4.16-3.19,1.27-.14,3.41,1.39,4.01,2.71,1.11,2.42,1.37,5.24,2,7.95Z"/>
    <path class="cls-3" d="m321.55,407.59c-.79,2.82-1.25,5.69-2.44,8.22-.54,1.16-2.53,2.3-3.81,2.25-1.3-.05-3.19-1.32-3.69-2.52-2.22-5.36-2.21-10.97-.16-16.35.49-1.29,2.59-2.57,4.05-2.69,1.23-.1,3.27,1.2,3.77,2.38,1.14,2.7,1.55,5.71,2.28,8.71Z"/>
    <path class="cls-3" d="m556.64,407.41c-.34,2.37-.55,4.83-1.09,7.22-.6,2.68-2.3,4.3-5.23,4.29-2.95,0-4.91-1.71-5.12-4.36-.38-4.72-.38-9.52-.02-14.24.2-2.59,2.02-4.48,5.01-4.49,3.1-.01,4.84,1.7,5.44,4.57.47,2.27.67,4.59,1.01,7.01Z"/>
    <path class="cls-3" d="m135.35,407.65c-.41,2.46-.64,5.06-1.31,7.54-.68,2.51-2.64,4.26-5.2,3.57-1.83-.5-4.54-2.17-4.71-3.59-.62-4.95-.6-10.03-.23-15.03.19-2.59,2.17-4.37,5.17-4.32,2.92.05,4.62,1.62,5.18,4.34.49,2.4.73,4.86,1.11,7.48Z"/>
    <path class="cls-3" d="m588.21,409.04c.43,4.21-.58,7.02-3.32,9.03-2.13,1.56-5.07,1.13-6.22-.79-1.45-2.42-.35-4.51,1.68-5.59,2.29-1.23,4.97-1.72,7.86-2.65Z"/>
    <path class="cls-1" d="m459.57,405.39v6.6"/>
    <path class="cls-1" d="m421.64,391.36c.14.55.27,1.1.41,1.65"/>
    <path class="cls-1" d="m178.41,390.53c-.55,1.65-1.1,3.3-1.65,4.95"/>
    <path class="cls-1" d="m356.51,419.42c-.55,1.51-1.1,3.03-1.65,4.54"/>
    <path class="cls-1" d="m434.01,390.53c-.55,1.65-1.1,3.3-1.65,4.95"/>
    <path class="cls-1" d="m444.32,388.06v11.56"/>
    <path class="cls-1" d="m642.2,385.58c1.37,2.48,2.75,4.95,4.12,7.43"/>
  </g>
</svg>