<?xml version="1.0" encoding="UTF-8"?>
<svg id="Layer_1" data-name="Layer 1" xmlns="http://www.w3.org/2000/svg" version="1.1" viewBox="0 0 741.9 455.8">
  <defs>
    <style>
      .cls-1 {
        fill: #fff;
        stroke-width: 0px;
      }
    </style>
  </defs>
  <path class="cls-1" d="M1.1,281.1v-106.4h739.6v106.4H1.1ZM521.3,223.7c1.5-1.1,2.5-1.8,3.4-2.6,5.6-5.4,3.9-15.7-3.1-18.3-7.1-2.7-14.5-1.3-21.8-1.2v47.4c6.6,0,13,.6,19.2-.1,8.6-1,12-6,11.4-14.6-.4-5.5-3.4-8.8-9-10.6h-.1ZM654.5,249.4v-47.8h-7.8v17c-7.4-5-13.7-4.1-16.7,2-3.8,7.8-3.8,16-.2,23.9,2.6,5.8,9,7.3,14.2,3.7.8-.5,1.5-1.1,2.3-1.8,1.4,4.9,5.1,2.1,8.2,2.9h0ZM328.7,249.4v-47.7h-7.6v17.1c-7.2-5.1-13.7-4.5-16.8,1.9-3.8,7.8-3.8,16-.3,23.9,2.6,5.8,8.9,7.3,14.2,3.8.8-.5,1.5-1.1,2.5-1.9,1.3,5.1,5,2.2,8.1,2.9h-.1ZM286.7,249h7.9v-23c0-4.3-1-8.3-5.6-10.1-4.5-1.7-8.3-.4-11.5,3.1-.2.3-.7.4-1,.5-.4-1.2-.7-2.3-1-3.2h-7.3v32.6h7.9c0-4.6-.2-8.8,0-13,.2-3,.7-6,1.7-8.8,1-2.7,3.1-4.9,6.3-4.1,3.2.8,2.5,3.9,2.5,6.2.1,6.4,0,12.9,0,19.7h.1ZM356.9,216.3c-.3,6.3-.4,12.2-1,18.1-.3,3.2-1.7,6.1-4.9,7.6-2.6,1.2-4.4.4-4.6-2.5-.3-3.5-.2-7.1-.2-10.7v-12.4h-8.2v22.8c0,1.6.3,3.3.8,4.8,1.5,4.8,6,7.3,10.7,5.7,2.5-.9,4.6-2.6,6.9-4,.2,1,.5,2.2.7,3.4h7.2v-32.8h-7.4ZM176.5,249.1v-14.1c.1-4.1.8-8.1,4.2-10.7,1.1-.9,3.2-1.4,4.5-1,.9.3,1.7,2.4,1.8,3.6.2,5.9.1,11.8.2,17.7,0,1.5.2,2.9.3,4.3h7.9v-21.4c0-2-.3-4.1-.8-6.1-1.2-4.1-4.4-6.8-8.6-6-3.3.5-6.3,2.5-9.4,3.7,0-.4-.2-1.6-.4-2.8h-7.3v32.8h7.6ZM466.7,216.3c-2.2,6.9-4.5,13.7-7,21.4-2.7-7.7-5-14.5-7.4-21.2h-8.2c.3,1,.5,1.7.7,2.3,3.3,9.2,6.8,18.3,9.9,27.5.6,1.9.6,4.3.1,6.3-.8,3.7-2.2,7.2-3.3,10.9,6.1,1.3,7,1,8.3-2.7,4.7-13.6,9.4-27.3,14-40.9.4-1.1.5-2.2.8-3.7h-4.9c-1,0-1.9.1-3,.2h0ZM565.1,232.7c-.3-2.1-.4-4-.8-5.8-1.7-7.8-6.4-11.6-14.2-11.5-7.4,0-12.3,4-13.5,11.7-.6,3.7-.6,7.6,0,11.4,1.1,7.5,6.2,11.7,13.5,11.9,7.3.1,12.4-3.8,14.1-11.2.5-2.1.7-4.3,1-6.4h0ZM143.8,232.5c-.3-2.1-.5-4.3-1-6.4-1.8-7.5-6.5-11-14.2-10.9-7.2.1-12.1,4.1-13.3,11.5-.6,3.7-.6,7.7,0,11.4,1.2,7.6,6.1,11.8,13.4,12,7.4.2,12.6-3.9,14.3-11.4.4-2,.6-4,.9-6.2h0ZM596.2,249.3v-22.8c0-1.1,0-2.2-.2-3.3-.6-3.5-2.4-6.6-6-7-4.1-.5-8.5-.6-12.5.3-4.3,1-5.9,4.4-5.6,9.4,1,0,2.1.2,3.2.2s2.4-.1,3.5-.2c2.1-4.4,4.2-5.7,7.2-4.7,2.6.9,3.2,3.4,2,8.5-1.2.1-2.6,0-3.9.4-2.8.6-5.7,1.1-8.2,2.3-4.3,2-6.2,6.2-5.2,10.6.8,4,4.3,7,9,6.9,2.9,0,5.7-1.3,8.8-2,1.6,2.8,4.6,1,7.9,1.3h0ZM99.9,201.6c-.2.8-.3,1.1-.3,1.3v33.3c0,6-3,8.5-8.9,7.6-1.7-.3-3.4-.6-5.3-1v6.3c1.5.4,2.7.7,3.9.9,13.2,2.1,18.9-2.8,18.9-16v-28c0-1.5-.2-2.9-.3-4.4h-8ZM395.6,216.4c.1,2,.2,3.6.2,5.2,2.3.3,4.1.5,6.3.8v19.1c0,3.4.9,6.4,4.4,7.6,3.9,1.4,8,1.6,11.9,0v-5c-1.6,0-3,.4-4,0-1.4-.7-3.6-2-3.7-3.1-.4-6.2-.2-12.5-.2-19.2h8.8v-5.8h-9.4v-11.8c-6.5,1.6-9.3,5.2-7.9,11.5-2.4.2-4.2.3-6.6.5h0l.2.2ZM223.8,244.3h-2.7c-3.8,0-5.5-1.3-5.7-4.9-.2-5.6,0-11.2,0-17,3.4-.2,6.4-.5,9.4-.7v-5.7h-9.7v-11.5c-6.7,1.4-8.7,5.6-7.9,11.4-2.4.2-4.2.4-5.9.6v5.2c2,.2,3.8.4,5.9.6,0,1.6.2,3,.2,4.5v15.2c0,2.9.8,5.6,3.8,6.8,4.1,1.7,8.4,2,12.6.2v-4.9h0v.2ZM371.8,249.6c4.7,0,9,.4,13.3-.1,3.9-.5,6.7-2.9,7.6-7s-.5-7.3-3.6-9.9c-2.1-1.8-4.5-3.1-6.7-4.7-1.5-1.1-2.8-2.4-4.4-3.8,4.1-4.8,8.3-2.2,12.5-1.3.1-1.1.3-2.1.2-3,0-1.1-.2-2.1-.3-3.8-4.1,0-8.1-.7-11.8.1-7.8,1.8-9.9,9.8-4.3,15.5,2.3,2.3,5.2,3.9,7.8,6,1.3,1,2.4,2.3,3.9,3.6-4.8,4.4-9.5,1.6-14.3,1.2v7.2h0ZM250.6,201.6v47.5h7.8v-47.5h-7.8,0ZM431.9,216.3h-7.3v32.7h7.5v-15.1c.1-6.8,2.5-9.4,9.2-10.2.4,0,.7-.2,1.3-.5v-7.7c-4.7-.9-7.4,2.2-10.4,5.1-.1-1.8-.2-3-.4-4.4h0ZM605.2,216.4v32.6h7.7v-13.9c.2-8.9,3.4-11.1,9.8-11.5.2,0,.4-.3.6-.5v-7.6c-4.5-.5-7.2,1.9-10,5.2-.3-1.8-.6-3.1-.8-4.4h-7.3ZM158.9,249.2v-32.7h-7.2v32.7h7.2ZM151.6,201.6v7.6h7.3v-7.6h-7.3Z"/>
</svg>