<?xml version="1.0" encoding="UTF-8"?>
<svg id="Layer_1" data-name="Layer 1" xmlns="http://www.w3.org/2000/svg" viewBox="0 0 567.34 388.94">
  <defs>
    <style>
      .cls-1 {
        fill-rule: evenodd;
      }

      .cls-1, .cls-2 {
        fill: #fff;
        stroke-width: 0px;
      }
    </style>
  </defs>
  <rect class="cls-2" x="115.28" width="330.72" height="6.04"/>
  <rect class="cls-2" x="115.28" y="23.02" width="330.72" height="8.22"/>
  <rect class="cls-2" x="115.28" y="45.92" width="330.72" height="9.07"/>
  <rect class="cls-2" x="115.28" y="67.38" width="330.72" height="9.64"/>
  <path class="cls-2" d="m408.09,98.67c8.2-3.71,16.42-7.35,24.67-10.94H115.28v10.94h292.81Z"/>
  <path class="cls-2" d="m362.32,120.15c4.84-2.37,9.73-4.73,14.68-7.08,3.21-1.52,6.43-3.04,9.65-4.54H115.28v11.62h247.04Z"/>
  <path class="cls-2" d="m446,112.1c-4.45,2.66-8.89,5.35-13.31,8.06h13.31v-8.06Z"/>
  <path class="cls-2" d="m319.88,142.04c8.65-4.71,17.36-9.28,26.19-13.78H115.28v13.78h204.6Z"/>
  <path class="cls-2" d="m419.61,128.27c-7.21,4.53-14.38,9.12-21.5,13.78h47.89v-13.78h-26.39Z"/>
  <path class="cls-2" d="m284.29,162.34c1.07-.64,2.15-1.28,3.22-1.92,5.68-3.36,11.34-6.65,17.01-9.86H115.28v11.78h169.01Z"/>
  <path class="cls-2" d="m385.22,150.57c-2.07,1.39-4.14,2.78-6.2,4.18-3.71,2.51-7.4,5.04-11.08,7.6h78.06v-11.78h-60.78Z"/>
  <path class="cls-2" d="m248.28,185.44c7.67-5.26,15.44-10.36,23.31-15.31H115.28v15.31h133Z"/>
  <path class="cls-2" d="m356.89,170.13c-7.01,5.02-13.96,10.12-20.85,15.31h109.96v-15.31h-89.11Z"/>
  <path class="cls-2" d="m115.87,189.99c5.82,1.88,11.61,3.86,17.37,5.93,9.19,3.23,18.21,6.93,27.02,11.08h58.67c7.42-5.9,15.02-11.57,22.8-17.01h-125.86Z"/>
  <path class="cls-2" d="m330.05,189.99c-7.28,5.57-14.49,11.24-21.63,17.01h137.58v-17.01h-115.95Z"/>
  <path class="cls-2" d="m174.01,292.38c-5.3-6.45-10.74-12.78-16.31-19h-42.42v19h58.73Z"/>
  <path class="cls-2" d="m235.3,273.39c-6.02,6.23-11.94,12.56-17.74,19h228.44v-19h-210.7Z"/>
  <path class="cls-2" d="m155.53,270.99c-5.92-6.46-12.18-12.8-18.66-19h-21.59v19h40.25Z"/>
  <path class="cls-2" d="m256.85,251.99c-6.52,6.22-12.93,12.55-19.22,19h208.37v-19h-189.15Z"/>
  <path class="cls-2" d="m135.37,250.57c-6.52-6.18-13.26-12.22-20.09-18.11v18.11h20.09Z"/>
  <path class="cls-2" d="m279.18,231.57c-7.06,6.2-14,12.53-20.82,19h187.64v-19h-166.82Z"/>
  <path class="cls-2" d="m166.31,209.95c.35.17.7.35,1.05.53,9.32,4.73,19.3,11.03,26.85,17.64.18-.16.35-.32.54-.47,6.67-6.1,13.51-12,20.52-17.69h-48.95Z"/>
  <path class="cls-2" d="m304.79,209.95c-5.85,4.78-11.66,9.61-17.4,14.52-1.74,1.48-3.48,2.98-5.2,4.48h163.81v-19h-141.2Z"/>
  <path class="cls-2" d="m199.06,312.81s0,0-.01,0c0,0,0,0,.01,0Z"/>
  <path class="cls-2" d="m564.91,42.66c-243.38,119.59-334.65,227.85-366.62,264.91-3.03,2.96-4.42,2.74-6.9-.49-36.4-47.32-59.94-70.1-136.71-128.83-.12-.09-.23-.17-.35-.26,0,0-1.3-.89-1.29-.88-.44-.42-1.02-1.36.83-.77.08.03.16.05.24.08,38.76,11.93,107.78,27.49,139.15,56.92.43.4.84.83,1.24,1.27.88-1.38,2.07-2.48,3.26-3.58,88.9-82.32,249.62-146.53,361.36-189.41,2.3-.88,6.01-2.8,7.57-2,1.43.74.46,1.94-1.76,3.03Z"/>
  <g>
    <path class="cls-2" d="m0,388.94v-65.15h35.01l32.26,30.29c.99.86,2.04,2.06,3.16,3.63s2.31,3.45,3.56,5.66c-.31-1.15-.55-2.42-.7-3.8s-.23-3.07-.23-5.04v-30.74h35.17v65.15h-35.17l-32.26-30.07c-.99-.88-2.07-2.14-3.24-3.76-1.17-1.62-2.36-3.48-3.55-5.57.36,1.15.62,2.35.78,3.61s.23,3.01.23,5.29v30.52H0Z"/>
    <path class="cls-1" d="m174.08,366.65h23.19l-11.48-22.56-11.71,22.56Zm-47.48,22.29l40.46-65.15h37.4l40.45,65.15h-36.62l-4.29-8.61h-36.62l-4.45,8.61h-36.32Z"/>
    <path class="cls-1" d="m300.19,353.06h11.84c7.69,0,12.83-.49,15.43-1.46s3.9-2.7,3.9-5.18-1.25-4.25-3.74-5.22c-2.49-.97-7.69-1.46-15.59-1.46h-11.84v13.32Zm-36.93,35.88v-65.15h47.29c10.46,0,18.75.35,24.86,1.04,6.12.69,11.23,1.81,15.34,3.34,5.31,2.03,9.26,4.56,11.87,7.56,2.6,3.01,3.9,6.58,3.9,10.71,0,7.29-3.8,12.87-11.4,16.75-7.6,3.88-18.56,5.82-32.88,5.82h-22.06v19.93h-36.93Z"/>
    <rect class="cls-2" x="389.7" y="323.8" width="37.57" height="65.15"/>
    <polygon class="cls-1" points="481.76 388.94 481.76 340.92 448.67 340.92 448.67 323.8 551.78 323.8 551.78 340.92 518.69 340.92 518.69 388.94 481.76 388.94"/>
  </g>
</svg>