<?xml version="1.0" encoding="UTF-8"?>
<svg id="Layer_1" data-name="Layer 1" xmlns="http://www.w3.org/2000/svg" version="1.1" viewBox="0 0 567.3 388.9">
  <defs>
    <style>
      .cls-1 {
        fill-rule: evenodd;
      }

      .cls-1, .cls-2 {
        fill: #fff;
        stroke-width: 0px;
      }
    </style>
  </defs>
  <path class="cls-2" d="M206.8,156.4h0,0Z"/>
  <g>
    <path class="cls-2" d="M7.8,232.5v-65.1h35l32.3,30.3c1,.9,2,2.1,3.2,3.6s2.3,3.5,3.6,5.7c-.3-1.1-.6-2.4-.7-3.8s-.2-3.1-.2-5v-30.7h35.2v65.1h-35.2l-32.3-30.1c-1-.9-2.1-2.1-3.2-3.8-1.2-1.6-2.4-3.5-3.5-5.6.4,1.1.6,2.4.8,3.6s.2,3,.2,5.3v30.5H7.8Z"/>
    <path class="cls-1" d="M181.9,210.2h23.2l-11.5-22.6-11.7,22.6ZM134.4,232.5l40.5-65.1h37.4l40.4,65.1h-36.6l-4.3-8.6h-36.6l-4.4,8.6h-36.3Z"/>
    <path class="cls-1" d="M308,196.6h11.8c7.7,0,12.8-.5,15.4-1.5s3.9-2.7,3.9-5.2-1.2-4.2-3.7-5.2-7.7-1.5-15.6-1.5h-11.8v13.3h0ZM271,232.5v-65.1h47.3c10.5,0,18.8.4,24.9,1,6.1.7,11.2,1.8,15.3,3.3,5.3,2,9.3,4.6,11.9,7.6,2.6,3,3.9,6.6,3.9,10.7,0,7.3-3.8,12.9-11.4,16.8s-18.6,5.8-32.9,5.8h-22.1v19.9h-36.9,0Z"/>
    <rect class="cls-2" x="397.5" y="167.4" width="37.6" height="65.1"/>
    <polygon class="cls-1" points="489.5 232.5 489.5 184.5 456.5 184.5 456.5 167.4 559.6 167.4 559.6 184.5 526.5 184.5 526.5 232.5 489.5 232.5"/>
  </g>
</svg>