<?xml version="1.0" encoding="UTF-8"?>
<svg id="Layer_1" data-name="Layer 1" xmlns="http://www.w3.org/2000/svg" viewBox="0 0 425.17 197.34">
  <defs>
    <style>
      .cls-1 {
        fill: #fff;
        fill-rule: evenodd;
        stroke-width: 0px;
      }
    </style>
  </defs>
  <path class="cls-1" d="m389.17,103.9v15.93c0,1.02-.83,1.86-1.84,1.86h-.42c-1.02,0-1.86-.84-1.86-1.86v-37.33c0-1.01.84-1.82,1.86-1.82h.42c1.01,0,1.84.81,1.84,1.82v16.39h36v-20.47c0-1.03-.82-1.86-1.85-1.86h-73c-1.01,0-1.84.82-1.84,1.86v45.51c0,1.04.82,1.85,1.84,1.85h73c1.03,0,1.85-.81,1.85-1.85v-20.04h-36Zm-89.52,8.76h-44c-1.01,0-1.84-.83-1.84-1.84v-.46c0-1.03.83-1.86,1.84-1.86h44v-14.04h-44c-1.01,0-1.84-.84-1.84-1.87v-.44c0-1.03.83-1.86,1.84-1.86h44v-13.73h-72.22c-1.03,0-1.85.82-1.85,1.86v45.51c0,1.04.82,1.85,1.85,1.85h72.22v-13.13Zm43.2,13.1h-37.57v-49.19h37.57v49.19Z"/>
  <path class="cls-1" d="m123.61,33.28V1.85c0-1.03-.82-1.85-1.85-1.85h-40.51c-1.02,0-1.85.81-1.85,1.85v31.44h44.21Zm-44.21,4.07v158.14c0,1.02.84,1.84,1.85,1.84h40.51c1.02,0,1.85-.82,1.85-1.84V37.36h-44.21Zm91.61,66.54v15.93c0,1.02-.82,1.86-1.84,1.86h-.42c-1.03,0-1.85-.84-1.85-1.86v-37.33c0-1.01.82-1.82,1.85-1.82h.42c1.01,0,1.84.81,1.84,1.82v16.39h36.01v-20.47c0-1.03-.83-1.86-1.85-1.86h-72.99c-1.03,0-1.84.82-1.84,1.86v45.51c0,1.04.81,1.85,1.84,1.85h72.99c1.03,0,1.85-.81,1.85-1.85v-20.04h-36.01Zm-118.23-27.32l-.48,14.77-12.51-14.77H1.81c-1.01,0-1.81.83-1.81,1.82v45.59c0,1.01.8,1.82,1.81,1.82h19.08l.49-14.98,12.68,14.98h38.77v-49.23h-20.05Z"/>
</svg>