<?xml version="1.0" encoding="UTF-8"?>
<svg id="Layer_1" data-name="Layer 1" xmlns="http://www.w3.org/2000/svg" viewBox="0 0 1894.74 212.11">
  <defs>
    <style>
      .cls-1 {
        fill: #000;
        stroke-width: 0px;
      }
    </style>
  </defs>
  <path class="cls-1" d="M0,92.4c.31-2.34.72-4.68.91-7.03,1.36-17.07,5.95-33.14,14.94-47.81,8.75-14.29,20.46-25.36,36.05-31.86,18.89-7.88,37.89-7.36,56.75.17,16.36,6.53,29.63,17.25,40.59,30.87,13.67,16.98,22.03,36.37,25.98,57.74,1.87,10.12,2.49,20.31,1.81,30.55-1.46,21.98-7.99,42.16-22.07,59.45-11.02,13.53-24.98,22.5-42.18,26.08-15.87,3.3-31.18,1.21-45.94-5.25-16.2-7.09-29.28-18.14-39.96-32.08-12.99-16.96-21-36.1-24.48-57.13-.94-5.66-1.31-11.42-1.96-17.13-.07-.6-.29-1.19-.44-1.79,0-1.6,0-3.2,0-4.8ZM98.28,142.57c0-.48.05-.72,0-.94-2.24-8.41-4.5-16.81-6.73-25.22-.27-1.01-.88-1.63-1.7-2.19-2.38-1.62-4.69-3.34-7.1-4.91-1.22-.79-1.87-1.76-2.24-3.19-5.69-21.61-11.45-43.21-17.17-64.82-1.09-4.12-2.54-8.08-4.86-11.67-2.02-3.13-4.45-5.89-7.77-7.67-5.96-3.2-9.31-2.07-13.04,1.02-3.59,2.98-6.71,6.39-9.51,10.11-11.4,15.18-17.38,32.4-19,51.19-1.07,12.36.1,24.57,2.85,36.64,4,17.54,11.07,33.66,22.51,47.67,13.96,17.09,31.44,28.88,52.96,34.36,6.08,1.55,12.26,2.38,18.52,1.18,2.26-.44,4.51-1.06,6.69-1.83,2.2-.78,3.36-2.97,2.88-4.92-.49-2.01-2.73-3.47-5.02-3.21-.63.07-1.24.28-1.87.43-3.05.74-6.15,1-9.28.77-5.12-.38-10.14-1.35-15.01-2.99-20.5-6.9-36.87-19.4-48.83-37.3-16.52-24.73-21.48-51.96-15.71-81.04,2.77-13.96,8.45-26.77,17.12-38.16,1.54-2.03,3.29-3.92,5.13-5.69,2.2-2.11,4.06-2.02,6.24.18.94.95,1.83,2.06,2.42,3.25,1.13,2.28,2.2,4.62,3.01,7.03,1.03,3.1,1.79,6.29,2.64,9.45,5.17,19.36,10.32,38.72,15.52,58.07.42,1.57.33,2.87-.51,4.29-1.46,2.47-2.68,5.09-4.09,7.59-.68,1.2-.8,2.32-.42,3.65,1.44,5.15,2.77,10.33,4.16,15.5.86,3.23,1.74,6.45,2.69,9.94,8.29-2.22,16.42-4.4,24.53-6.57ZM79.53,69.59c-.05.44-.11.6-.08.74,2.28,8.56,4.56,17.13,6.9,25.67.19.68.79,1.36,1.39,1.8,2.18,1.62,4.38,3.23,6.68,4.66,1.68,1.04,2.53,2.38,3.03,4.3,5.69,21.7,11.47,43.37,17.22,65.06,1.26,4.76,3.19,9.2,6.27,13.08,2.22,2.8,4.86,5.06,8.25,6.36,3.56,1.36,6.91,1.16,9.91-1.35,1.77-1.49,3.6-2.95,5.16-4.64,14.62-15.81,21.96-34.78,24.17-55.95.99-9.51.56-18.99-.9-28.43-2.38-15.46-7.02-30.18-14.98-43.7-13.25-22.51-32.07-38.3-57.02-46.5-5.64-1.85-11.43-3.01-17.39-3.18-4.45-.13-8.74.77-12.91,2.27-2.33.84-3.6,3.04-3.05,5.02.6,2.17,2.82,3.52,5.24,3.18.47-.07.92-.26,1.39-.35,1.1-.21,2.19-.45,3.3-.59,6.06-.77,11.98.16,17.78,1.78,18.68,5.23,34.01,15.69,46.39,30.44,21.79,25.97,29.4,63.15,19.85,95.88-3.46,11.85-8.68,22.83-16.44,32.5-1.34,1.68-2.86,3.24-4.45,4.68-1.74,1.58-3.4,1.62-5.15.07-1.18-1.04-2.32-2.28-3.01-3.67-1.38-2.78-2.76-5.62-3.57-8.6-6.02-22.19-11.9-44.42-17.84-66.63-.33-1.24-.18-2.29.45-3.42,1.49-2.65,2.79-5.4,4.32-8.02.71-1.22.73-2.33.38-3.63-2.11-7.78-4.17-15.58-6.26-23.36-.18-.66-.47-1.28-.73-2.01-8.21,2.2-16.22,4.34-24.3,6.51Z"/>
  <path class="cls-1" d="M380.12,107.55c-.12,15.65-1.77,29.32-6.66,42.43-9.88,26.48-28.78,42.86-56.19,49.28-17.19,4.03-34.45,3.71-51.45-1.3-24.53-7.23-41.19-23.05-50.28-46.87-3.58-9.39-5.49-19.16-6.34-29.16-.75-8.86-.77-17.72.07-26.57,1.15-12.18,3.96-23.94,9.36-34.98,9.02-18.45,23.16-31.41,42.47-38.38,21.16-7.64,42.66-7.98,63.98-.85,24.09,8.05,40.12,24.58,48.74,48.35,3.42,9.45,5.23,19.24,5.86,29.26.22,3.51.34,7.02.43,8.8ZM340.67,108.04c-.11-1.99-.19-4.87-.44-7.74-.7-8.01-2.37-15.79-5.75-23.14-4.2-9.14-10.44-16.42-19.51-21.05-6.92-3.53-14.34-4.85-22.06-4.63-18.28.54-31.43,9-39.33,25.5-2.5,5.22-4.02,10.76-4.98,16.46-1.6,9.53-1.63,19.09-.43,28.66.88,7.01,2.61,13.81,5.7,20.21,5.59,11.58,14.36,19.43,26.92,22.75,6.73,1.78,13.57,2.09,20.47,1.15,10.1-1.38,18.79-5.54,25.67-13.19,4.01-4.46,6.88-9.59,8.99-15.17,3.53-9.33,4.57-19.06,4.74-29.82Z"/>
  <path class="cls-1" d="M690.86,198.66h-37.63v-21.99c-.52.44-.81.58-.92.8-5.91,11.61-15.6,18.63-27.78,22.35-23.27,7.11-55.33.33-71.04-30.27-4.35-8.48-6.93-17.51-8.17-26.92-1.66-12.62-1.36-25.2,1.36-37.66,2.87-13.14,8.34-24.98,17.98-34.6,9.45-9.44,20.93-14.75,34.14-16.4,9.91-1.24,19.65-.55,29.03,3.07,10.69,4.12,19.07,10.92,24.32,21.27.14.28.34.53.52.79.03.05.14.04.46.12v-22.75h37.74v142.18ZM654.26,127.39c.1-5.16-.54-10.62-2.08-15.95-4.9-16.98-17.14-25.36-30.79-26.43-14.17-1.11-27.18,5.08-33.95,18.59-3.24,6.47-4.67,13.39-5.05,20.55-.42,7.98.39,15.8,3.16,23.34,7.14,19.48,24.72,25.79,41.04,22.24,11.53-2.51,19.13-9.8,23.7-20.44,2.95-6.86,4.02-14.1,3.96-21.91Z"/>
  <path class="cls-1" d="M485.3,199.21h-38.76c-19.79-47.43-39.61-94.92-59.43-142.43,1.98-.56,34.18-.78,41.11-.3,12.48,32.9,25.01,65.93,37.53,98.96l.48.07c3.27-8.15,6.23-16.42,9.36-24.63,3.16-8.28,6.25-16.59,9.37-24.88,3.1-8.22,6.2-16.43,9.3-24.65,3.12-8.28,6.24-16.57,9.37-24.89h41.74c-20.06,47.69-40.04,95.18-60.06,142.76Z"/>
  <path class="cls-1" d="M951.42,198.8h-116.12V18.89c1.65-.52,112.73-.71,116.13-.18v18.34c-6.42.23-12.79.07-19.15.1-6.4.03-12.8,0-19.2,0h-38.15c-6.39,0-12.78,0-19.35,0v61.03c6.06.09,12.11.03,18.15.04,6.08.01,12.16,0,18.24,0h36.47c6.07,0,12.13,0,18.14,0,.53,1.97.59,15.41.08,18.02h-91.13v63.98h95.88v18.57Z"/>
  <path class="cls-1" d="M1824.73,87.73v-31.24c6.52,0,12.88,0,19.25,0,.49,1.64.64,138.94.13,142.14h-19.3c-.3-2.49-.11-5.02-.14-7.53-.03-2.56,0-5.11,0-7.67v-7.43c0-2.52,0-5.04,0-7.56-.12-.03-.24-.06-.37-.09-.25.45-.53.88-.74,1.35-7.37,16.6-20.12,26.87-37.65,30.83-18.53,4.19-36.29,1.72-52.56-8.48-13.16-8.26-21.46-20.33-26.14-34.97-3.72-11.63-4.77-23.59-4.09-35.74.52-9.15,2.03-18.11,5.43-26.64,9.53-23.92,27.23-37.42,52.69-40.71,12.2-1.58,24.11-.21,35.4,4.94,12.22,5.57,21.03,14.59,26.59,26.79.32.71.66,1.41.99,2.12.18-.03.35-.06.53-.1ZM1825.11,127.35c-.11-7.11-.9-14.64-3.3-21.92-5.21-15.81-15.29-26.93-31.39-32.05-9.08-2.88-18.4-3.28-27.73-1.51-15.94,3.04-27.47,11.92-34.41,26.61-3.24,6.87-4.93,14.16-5.54,21.7-.92,11.43-.06,22.68,4.14,33.47,5.5,14.15,15.25,24,29.86,28.66,7.48,2.39,15.16,3.07,22.98,2.25,19.1-2,32.56-11.74,40.21-29.36,3.78-8.71,5.03-17.94,5.18-27.86Z"/>
  <path class="cls-1" d="M1158.81,131.27h-119.37c-.19.42-.38.63-.37.84.34,13.03,3.55,25.12,12,35.39,6.2,7.53,14.2,12.36,23.55,14.85,12.15,3.24,24.37,3.14,36.48-.24,10.94-3.06,19.38-9.58,25.48-19.14.6-.94,1.18-1.89,1.93-3.09,5.85,1.3,11.73,2.6,17.86,3.96-.39.86-.64,1.51-.96,2.11-10.56,20.01-27.05,31.68-49.46,34.9-12.48,1.8-24.9,1.48-37.08-2-21.17-6.05-36.17-19.22-43.83-39.87-8.16-22.02-8.03-44.28,1.52-65.87,9.72-22,27.14-34.6,50.76-38.63,11.66-1.99,23.3-1.53,34.7,1.69,21.16,5.98,35.34,19.52,42.7,40.19,3.89,10.93,4.86,22.27,4.31,33.78-.01.3-.11.6-.21,1.13ZM1039.72,114.73h100.41c-.1-1.2-.12-2.24-.27-3.25-.29-1.97-.54-3.96-1-5.9-3.9-16.57-13.71-27.85-30.08-33.06-8.75-2.78-17.74-3.26-26.81-2-7.87,1.09-15.23,3.62-21.79,8.18-10.29,7.14-16.29,17.14-19.17,29.15-.53,2.22-.84,4.49-1.29,6.89Z"/>
  <path class="cls-1" d="M719.04,10.11h37.46c.08.06.15.11.2.17.05.06.12.13.12.19.05,62.26.09,124.52.12,186.79,0,.47-.06.93-.1,1.54h-37.81V10.11Z"/>
  <path class="cls-1" d="M1312.84,98.92c-5.84,1.44-11.46,2.82-17.15,4.23-.83-1.81-1.53-3.41-2.29-4.97-5.6-11.45-13.9-20.02-26.16-24.3-6.65-2.32-13.54-3.18-20.54-2.95-12.19.4-22.99,4.42-31.99,12.83-5.64,5.27-9.87,11.56-12.53,18.79-6.61,17.97-6.55,35.93,1.43,53.41,7.17,15.72,19.56,25.35,36.78,27.82,15.88,2.28,30.39-1.17,42.45-12.39,5.11-4.75,8.78-10.53,11.56-16.91.31-.72.65-1.42,1.06-2.32,5.74,1.42,11.36,2.81,17.11,4.23-1.29,4.38-3.04,8.31-5.09,12.09-9.4,17.31-23.89,27.83-43.09,31.76-13.47,2.76-26.92,2.44-40-2.09-20.19-6.98-33.65-20.96-41.15-40.76-4.76-12.56-5.88-25.62-4.64-38.92.97-10.38,3.64-20.29,8.64-29.46,11.17-20.48,28.43-32.18,51.58-35.02,10.98-1.35,21.89-.56,32.54,2.57,16.66,4.89,28.64,15.42,36.53,30.74,1.53,2.98,2.77,6.1,4.12,9.17.31.71.51,1.48.84,2.45Z"/>
  <path class="cls-1" d="M1671.47,152.15c5.67,1.4,11.23,2.76,17.08,4.2-.25.86-.4,1.6-.67,2.31-8.95,23.8-25.8,38.12-51.05,42.19-12.76,2.05-25.39,1.37-37.6-3.11-19.43-7.13-32.47-20.78-39.82-39.94-4.47-11.67-5.88-23.82-5.07-36.27.8-12.22,3.78-23.83,9.95-34.45,10.55-18.17,26.27-29.09,47-32.62,11.01-1.87,22.01-1.37,32.86,1.23,18.24,4.37,31.36,15.26,39.9,31.82,1.86,3.61,3.53,7.31,4.78,11.41-5.77,1.42-11.4,2.81-17.16,4.23-.43-1-.78-1.79-1.13-2.59-2.81-6.34-6.44-12.14-11.46-16.99-7.61-7.36-16.87-11.06-27.26-12.26-7.47-.86-14.87-.56-22.1,1.61-15.01,4.52-25.17,14.42-31.18,28.7-4.54,10.77-5.63,22.06-4.53,33.61.82,8.62,3.07,16.82,7.41,24.34,8.36,14.5,20.86,22.77,37.59,24.53,8,.84,15.83-.01,23.4-2.68,12.41-4.37,21.16-12.84,26.89-24.56.7-1.43,1.33-2.9,2.16-4.71Z"/>
  <path class="cls-1" d="M1341.02,56.31v-26.68c6.62-1.41,13.14-2.8,19.95-4.25v30.93c3.15.08,6.08.03,9,.04,2.96,0,5.92,0,8.88,0h17.76c2.94,0,5.89,0,8.98,0v15.88h-44.25c-.11.73-.26,1.26-.26,1.78.02,23.9-.03,47.79.12,71.69.04,6.71.79,13.4,2.77,19.87.47,1.52,1,3.04,1.64,4.5,3.64,8.29,10.24,12.59,19,13.93,6.06.93,12.11.82,18.15-.23.68-.12,1.38-.17,2.23-.26.91,5.29,1.8,10.38,2.7,15.63-.54.21-1.02.5-1.53.59-10.25,1.78-20.51,2.08-30.76.07-8.78-1.72-16.58-5.29-22.5-12.26-4.72-5.55-7.37-12.1-9.08-19.08-2.06-8.35-2.74-16.87-2.77-25.43-.07-22.54-.02-45.08-.02-67.61v-3.03h-20.71c-.59-1.85-.76-11.12-.31-15.98,6.86-.13,13.76.02,21.01-.09Z"/>
  <path class="cls-1" d="M1495.19,55.93c-.82,6.37-1.62,12.61-2.46,19.07-1.57-.22-2.97-.42-4.36-.59-5.67-.71-11.33-.79-16.94.44-10.23,2.25-17.42,8.34-22,17.65-2.96,6.02-4.62,12.44-5.26,19.07-.54,5.56-.86,11.16-.88,16.74-.1,22.46-.04,44.92-.04,67.38,0,.96,0,1.91,0,2.83-1.78.54-16.29.65-19.23.16V56.49h19.12v24.15c.16.05.32.11.48.16.33-.65.68-1.3.98-1.96,3.34-7.5,8.27-13.64,15.34-17.94,5.93-3.61,12.45-5.51,19.32-5.8,4.85-.2,9.73.28,14.6.47.31.01.61.16,1.33.35Z"/>
  <path class="cls-1" d="M995.32,198.83h-19.41V10.08c6.43-.2,12.85-.05,19.41-.1v188.86Z"/>
  <path class="cls-1" d="M1894.74,198.83h-19.43V10.01c6.45-.05,12.87-.02,19.43-.02v188.84Z"/>
  <path class="cls-1" d="M1509.9,198.8V56.74c1.74-.49,16.17-.59,18.96-.12v142.18h-18.96Z"/>
  <path class="cls-1" d="M1519.31,34.36c-6.24.04-11.07-3.78-11.79-9.37-1.27-9.94,6.47-14.28,13.44-13.47,5.43.64,9.39,3.88,10.53,8.45,1.8,7.16-3,13.74-10.5,14.38-.56.05-1.12,0-1.68,0Z"/>
</svg>