<?xml version="1.0" encoding="UTF-8"?>
<svg id="Layer_1" data-name="Layer 1" xmlns="http://www.w3.org/2000/svg" viewBox="0 0 1747.44 277.21">
  <defs>
    <style>
      .cls-1 {
        fill: #e4e4e4;
      }
    </style>
  </defs>
  <path class="cls-1" d="m224.45,150.55c-.13,31.3-7.56,60.48-26.3,86-32.11,43.72-85.86,53.28-131.16,23.37-28.25-18.65-46.44-45.09-57.19-76.77-12.95-38.16-13.61-76.44,1.37-114.23,10.92-27.53,28.62-49.5,56.52-61.32,31.06-13.16,60.91-8.65,88.82,9.13,30.6,19.49,49.21,48.1,60.06,82.17,5.35,16.78,8.02,34,7.89,51.65Zm-100.91,42.13c1.38-2.04,1.07-4.05.69-5.98-1.63-8.41-3.03-16.89-5.11-25.19-1.95-7.78-6.18-14.16-13.83-17.72-3.77-1.75-5.38-5.03-6.15-8.99-4.86-25.24-9.71-50.49-14.78-75.69-1.6-7.94-4.09-15.66-9.77-21.85-6.69-7.29-14.9-8.82-23.77-4.4-8.09,4.03-14.07,10.37-18.84,17.85-9.91,15.56-15.44,32.79-17.89,50.9-4.02,29.71-.64,58.68,10.96,86.4,11.82,28.26,29.45,51.97,56.45,67.56,20.49,11.83,42.33,15.44,65.41,9.13,6.37-1.74,8.48-5.57,6.89-11.51-1.42-5.29-4.64-6.8-11.28-5.19-12.78,3.12-25.52,3.25-38.22-.37-26.53-7.55-45.04-25.04-58.47-48.25-17.12-29.58-22.71-61.69-18.58-95.43,2.08-16.98,8.11-32.58,19.19-45.92,2.96-3.56,5.95-7.13,10.1-9.41,4.44-2.44,7.89-1.66,10.71,2.52,2.24,3.32,3.42,7.13,4.19,11.03,4.92,24.9,9.79,49.8,14.68,74.7.83,4.25.6,8.48-2.52,11.64-4.97,5.03-6.09,11.11-6.07,17.72.03,9.17,2.61,17.93,4.46,26.79.48,2.29-.17,5.11,2.27,6.77,6.7-.13,7.02.15,8.26,6.92.68,3.73,1.26,7.49,2.18,11.16.62,2.45.85,5.4,4.11,6.17,3.59-1.78,3.95-2.49,3.2-6.45-.92-4.85-1.98-9.68-2.77-14.54-.57-3.47,1.03-5.61,4.52-6.49,4.92-1.24,7.43.39,8.36,6.21.78,4.89,1.53,9.77,3,14.51.6,1.92,1.85,3.21,4.03,2.75,2.17-.45,2.89-2.22,2.71-4.14-.21-2.28-.97-4.51-1.23-6.8-.55-4.82-2.43-9.49-2.21-14.52,2.02-.74,3.68-1.34,5.15-1.88Zm18.51-112.78c-1.27-.25-1.96-.59-2.55-.47-10.69,2.11-21.4,4.09-32.02,6.52-4.52,1.03-5.57,4.93-4.94,9.04,1.06,6.84,2.09,13.72,3.73,20.43,2.27,9.31,6.77,17.18,16.15,21.22,2.52,1.08,3.42,3.29,3.92,5.88,4.18,21.33,8.34,42.65,12.69,63.95,2.14,10.46,3.33,21.22,8.47,30.84,6.91,12.93,18.97,15.92,31.23,7.87,7.35-4.83,12.69-11.49,17.08-18.99,11.15-19.07,16.48-39.88,17.51-61.74,1.4-29.57-4.57-57.79-17.82-84.27-13.02-26.04-31.04-47.46-57.91-60.3-6.29-3-12.83-5.28-19.66-6.59-5.32-1.02-7.31.57-8.16,5.87-.99,6.12,1.36,9.35,8.84,11.38,20.69,5.6,37.37,17.3,50.67,33.79,22.2,27.52,31.32,59.45,30.62,94.45-.34,16.98-3.06,33.49-10.78,48.86-4.19,8.35-9.55,15.87-16.83,21.81-6.76,5.52-12.14,4.09-15.42-4.04-1.1-2.73-1.97-5.61-2.54-8.5-4.9-24.9-9.61-49.84-14.61-74.72-.95-4.72.11-8.38,3.19-11.8,2.95-3.27,4.5-7.14,5.19-11.54.9-5.72-.07-11.26-1.26-16.7-1.61-7.34-1.67-15.05-4.82-22.23Z"/>
  <path class="cls-1" d="m407.38,141.2c0,12.14-1.35,24.11-5.45,35.59-10.54,29.52-32.16,45-62.73,48.65-12.76,1.52-25.45.6-37.75-3.32-23.45-7.46-38.85-23.22-46.19-46.53-6.92-21.99-7.33-44.41-.73-66.46,9.7-32.41,32.52-49.62,65.72-52.88,32.31-3.17,64.76,9.72,79.46,43.35,5.13,11.74,7.8,26.28,7.68,41.59Zm-121.62.51c-.24,7.13.83,15.12,3.22,22.91,5.17,16.92,17.45,27.43,34.52,28.89,17.33,1.48,32.22-3.68,40.37-19.93,10.58-21.12,10.55-43.13.31-64.4-7.23-15.02-20.45-21.37-36.92-20.92-16.31.45-28.28,7.88-35.5,22.63-4.6,9.4-6.07,19.45-5.99,30.83Z"/>
  <path class="cls-1" d="m648.73,111.53v-18.81h34.63v130.32h-34.66v-17.84c-.95.17-1.39.13-1.48.29-16.65,28.2-64.69,28.7-85.65-2.1-11.36-16.69-13.84-35.4-12.2-54.93,1.25-14.95,5.74-28.77,15.77-40.34,15.26-17.6,42.86-23.35,63.88-13.32,3.9,1.86,7.43,4.26,10.65,7.16,3.17,2.86,5.49,6.41,9.07,9.57Zm1.21,46.88c-.17-7.25-1.04-14.13-3.98-20.53-5.63-12.28-15.28-18.77-28.83-18.93-13.54-.17-23.7,5.85-29.19,18.24-6.12,13.79-6.07,28.05,0,41.84,5.37,12.2,15.43,18.31,28.68,18.36,13.24.06,23.02-6.01,28.87-18.08,3.24-6.69,4.14-13.85,4.45-20.89Z"/>
  <path class="cls-1" d="m516.36,92.62h38.2c-18.39,43.78-36.62,87.19-54.94,130.81h-35.78c-18.09-43.43-36.2-86.89-54.47-130.75h37.74c11.42,30.13,22.91,60.42,34.73,91.61,11.73-31.15,23.14-61.43,34.53-91.67Z"/>
  <path class="cls-1" d="m923.1,206.37v16.89h-106.11V57.96h106.15v16.76h-87.5v56.21h83.4v16.23h-83.36v59.21h87.43Z"/>
  <path class="cls-1" d="m1687.81,118.61v-25.83h17.88v130.28h-17.86v-25.39c-1.68-.17-1.79.87-2.1,1.5-10.32,20.83-33.07,29.84-55.53,26.85-30.43-4.05-50.32-25.51-53.28-56.13-1.44-14.87-.58-29.36,5.01-43.32,15.74-39.3,70.48-49.75,97.38-18.65,2.89,3.34,4.96,7.23,7.25,10.98.41-.1.82-.19,1.23-.29Zm.48,39.49c.14-4.65-.31-9.24-1.13-13.81-4.11-22.75-20.88-37.31-43.98-38.17-23.64-.87-41.11,11.79-46.94,34.29-2.95,11.39-2.91,22.91-.25,34.37,5,21.54,21.45,34.99,43.53,35.71,22.64.73,39.79-11.42,46.21-32.83,1.91-6.37,2.78-12.91,2.56-19.57Z"/>
  <path class="cls-1" d="m1104.4,161.5h-109.13c-2.75,17.11,9.2,37.27,26.09,44.56,23.87,10.3,48.09,3.51,64.95-18.39,4.99,1.1,10.12,2.23,15.98,3.53-3.99,8.4-9.18,15.41-16.13,21.08-13.4,10.95-29.17,14.25-45.95,13.67-45.11-1.57-66.49-36.09-63.14-75.62.75-8.79,2.86-17.25,6.64-25.24,10.97-23.16,34.93-36.79,61.57-35.09,39.12,2.51,62.98,31.02,59.12,71.49Zm-108.71-15.48h91.49c-.34-23.94-18.16-40.51-43.76-40.84-26.65-.34-46.61,16.65-47.73,40.84Z"/>
  <path class="cls-1" d="m704.68,49.96h34.37v173.36h-34.37V49.96Z"/>
  <path class="cls-1" d="m1225.43,180.5c5.32,1.32,10.24,2.55,15.6,3.88-5.99,17.72-16.66,30.86-34.11,37.11-47.21,16.93-92.67-14.18-88.93-69.75,1.05-15.57,6.48-29.42,16.64-41.54,24.42-29.12,88.28-30.53,105.69,18.64.27.76.45,1.55.82,2.82-5.24,1.3-10.26,2.55-15.39,3.82-.74-1.47-1.36-2.61-1.91-3.78-8.51-18.01-23.07-26.04-42.62-25.58-19.29.46-33.06,9.75-40.67,27.27-6.94,16-7.03,32.55-.22,48.67,7.54,17.84,21.3,27.36,40.79,27.79,19.53.42,33.97-8.01,42.63-25.77.5-1.02.96-2.05,1.68-3.58Z"/>
  <path class="cls-1" d="m1567.89,131.69c-5.41,1.33-10.34,2.53-15.48,3.79-1.14-2.27-2.11-4.32-3.18-6.32-9.28-17.36-26.25-25.43-47.67-22.67-18.18,2.34-33.3,16.84-37.53,36.13-2.86,13.04-2.59,25.96,2.54,38.45,7.44,18.13,20.93,28.1,40.63,28.75,20.18.67,34.93-8.09,43.61-26.55.34-.73.67-1.47,1.11-2.43,5.31.47,10.22,2.31,15.75,3.51-5.13,15.77-14.28,27.99-29.03,34.95-38.38,18.09-88.24.32-93.68-52.66-2.18-21.29,2.67-40.53,16.98-57.12,24.32-28.19,87.27-29.63,104.87,18.83.33.91.6,1.85,1.09,3.34Z"/>
  <path class="cls-1" d="m1262.58,107.3h-18.99v-14.74h18.79v-24.52c6.31-1.33,12.2-2.57,18.5-3.89v28.22h40.86v14.78h-40.71c0,16.06-.08,31.55.03,47.04.07,10.4-.54,20.81,1.05,31.17,2.91,18.98,13.14,26.8,32.38,24.63,2.11-.24,4.22-.44,6.75-.71.83,4.75,1.62,9.24,2.42,13.77-2.51,2.05-5.47,1.39-8.15,1.81-8.29,1.31-16.52.49-24.57-1.56-16.13-4.11-23.53-15.86-26.45-31.23-1.36-7.15-1.88-14.41-1.89-21.69-.02-20.81,0-41.62,0-63.09Z"/>
  <path class="cls-1" d="m1747.44,223.35h-17.6V50.03h17.6v173.32Z"/>
  <path class="cls-1" d="m941.48,50.05h17.68v173.23h-17.68V50.05Z"/>
  <path class="cls-1" d="m1351.72,223.4h-17.59V92.81h17.39v20.9c4.93-8.36,10.79-15.33,19.78-19.22,8.98-3.88,18.24-3.48,27.98-2.61-.77,6.04-1.47,11.55-2.18,17.16-3.42.88-6.61-.52-9.87-.56-16.47-.21-27.74,7.89-32.45,23.61-2.39,7.98-3.1,16.17-3.08,24.47.06,22.12.02,44.24.02,66.83Z"/>
  <path class="cls-1" d="m1425.67,223.41h-17.02V92.7h17.02v130.71Z"/>
  <path class="cls-1" d="m1428.53,61.87c-.04,6.03-4.9,10.48-11.43,10.48-6.42,0-10.99-4.6-10.84-10.9.15-5.99,4.81-10.32,11.02-10.23,6.53.1,11.29,4.61,11.25,10.65Z"/>
</svg>