<?xml version="1.0" encoding="iso-8859-1"?>
<!-- Uploaded to: SVG Repo, www.svgrepo.com, Generator: SVG Repo Mixer Tools -->
<svg fill="#000000" height="800px" width="800px" version="1.1" id="Layer_1" xmlns="http://www.w3.org/2000/svg" xmlns:xlink="http://www.w3.org/1999/xlink" 
	 viewBox="0 0 507.8 507.8" xml:space="preserve">
<g>
	<g>
		<path d="M152.549,69.8c-43.7,0-79.2,35.5-79.2,79.2c0,43.7,35.5,79.2,79.2,79.2s79.2-35.5,79.2-79.2
			C231.749,105.3,196.249,69.8,152.549,69.8z M152.549,200c-28.1,0-51-22.9-51-51c0-28.1,22.9-51,51-51c28.1,0,51,22.9,51,51
			C203.549,177.1,180.649,200,152.549,200z"/>
	</g>
</g>
<g>
	<g>
		<path d="M152.549,286.1c-43.7,0-79.2,35.5-79.2,79.2s35.5,79.2,79.2,79.2s79.2-35.5,79.2-79.2S196.249,286.1,152.549,286.1z
			 M152.549,416.3c-28.1,0-51-22.9-51-51c0-28.1,22.9-51,51-51c28.1,0,51,22.9,51,51C203.549,393.4,180.649,416.3,152.549,416.3z"/>
	</g>
</g>
<g>
	<g>
		<path d="M412.949,201.3v-95.1c0-31.1-25.3-56.4-56.4-56.4h-79.2v-7.5c0-23.3-19-42.3-42.3-42.3h-164.9
			c-23.4-0.1-42.4,18.9-42.4,42.2v423.3c0,23.3,19,42.3,42.3,42.3h164.9c23.3,0,42.3-19,42.3-42.3V78h79.2
			c15.6,0,28.2,12.7,28.2,28.2v95.1c-38.2,6.7-67.3,40-67.3,80.1v63.1c0,7.8,6.3,14.1,14.1,14.1h12v67c0,7.8,6.3,14.1,14.1,14.1
			c7.8,0,14.1-6.3,14.1-14.1v-67h54.1v67c0,7.8,6.3,14.1,14.1,14.1c7.8,0,14.1-6.3,14.1-14.1v-67h12c7.8,0,14.1-6.3,14.1-14.1v-63.1
			C480.349,241.3,451.149,208,412.949,201.3z M249.149,465.6h-0.1c0,7.8-6.3,14.1-14.1,14.1h-164.8c-7.8,0-14.1-6.3-14.1-14.1V42.2
			c0-7.8,6.3-14.1,14.1-14.1h164.9c7.8,0,14.1,6.3,14.1,14.1V465.6z M452.049,330.4L452.049,330.4h-106.4v-49
			c0-29.3,23.9-53.2,53.2-53.2c29.3,0,53.2,23.9,53.2,53.2V330.4z"/>
	</g>
</g>
<g>
	<g>
		<circle cx="152.549" cy="340.7" r="14.1"/>
	</g>
</g>
<g>
	<g>
		<circle cx="152.549" cy="389.9" r="14.1"/>
	</g>
</g>
<g>
	<g>
		<circle cx="152.549" cy="124.4" r="14.1"/>
	</g>
</g>
<g>
	<g>
		<circle cx="152.549" cy="173.6" r="14.1"/>
	</g>
</g>
</svg>