<svg id="visual" viewBox="0 0 900 600" width="900" height="600" xmlns="http://www.w3.org/2000/svg" xmlns:xlink="http://www.w3.org/1999/xlink" version="1.1"><path d="M0 397L30 410.3C60 423.7 120 450.3 180 451.8C240 453.3 300 429.7 360 434.7C420 439.7 480 473.3 540 485.5C600 497.7 660 488.3 720 486.7C780 485 840 491 870 494L900 497L900 601L870 601C840 601 780 601 720 601C660 601 600 601 540 601C480 601 420 601 360 601C300 601 240 601 180 601C120 601 60 601 30 601L0 601Z" fill="#84b4bf" stroke-linecap="round" stroke-linejoin="miter"></path></svg>